{"glyphs":{"0":{"ha":833,"x_min":69,"x_max":772,"o":"m 772 8 q 707 -168 772 -104 q 574 -222 651 -222 l 285 -222 q 122 -144 181 -222 q 69 31 69 -75 l 69 767 q 140 968 69 904 q 301 1022 200 1022 l 522 1022 q 703 975 640 1022 q 750 896 750 939 q 742 865 750 874 l 633 756 q 609 754 625 747 q 593 776 593 761 l 593 838 q 557 865 593 865 l 297 865 q 269 855 279 865 q 258 831 258 844 l 258 8 q 271 -20 258 -12 q 301 -28 283 -28 l 546 -28 q 582 -1 582 -28 l 582 607 q 584 616 582 613 q 588 621 586 619 q 709 731 681 704 q 761 783 738 758 q 767 783 763 785 q 772 776 772 781 l 772 8 z "},"1":{"ha":911,"x_min":103,"x_max":836,"o":"m 836 -206 q 813 -222 836 -222 l 126 -222 q 108 -212 114 -222 q 103 -187 103 -203 l 103 -46 q 126 -21 103 -21 l 418 -21 q 444 -12 444 -21 l 444 754 q 418 754 429 763 q 333 667 406 746 q 250 610 281 610 l 121 610 q 110 633 110 610 l 110 747 q 142 782 110 767 q 200 815 189 804 l 418 1015 q 444 1022 428 1022 l 607 1022 q 631 1015 621 1022 q 642 996 642 1007 l 642 3 q 675 -21 642 -25 l 813 -21 q 836 -39 836 -21 l 836 -206 z "},"2":{"ha":907,"x_min":94,"x_max":838,"o":"m 838 729 q 817 590 838 668 q 767 451 796 513 q 694 338 738 389 q 574 211 657 293 l 392 31 q 369 -10 369 10 q 392 -28 369 -28 l 808 -28 q 832 -43 832 -28 l 832 -201 q 808 -222 832 -222 l 121 -222 q 94 -189 94 -222 l 94 -17 q 147 68 94 14 q 243 160 194 114 l 408 329 q 547 488 529 463 q 638 711 638 611 q 619 787 638 754 q 565 819 601 819 l 372 819 q 351 812 363 819 q 340 790 340 804 l 340 679 q 306 660 340 660 l 171 660 q 142 679 142 660 l 142 835 q 199 949 142 892 q 367 1017 267 1017 l 624 1017 q 785 921 725 1017 q 838 729 838 836 z "},"3":{"ha":881,"x_min":54,"x_max":801,"o":"m 796 110 q 714 -108 796 -18 q 431 -218 614 -218 q 132 -128 221 -218 q 54 115 54 -50 q 63 149 54 140 q 83 158 71 158 q 99 157 94 157 l 243 157 q 260 129 260 157 q 263 71 260 89 q 285 31 265 53 q 342 -10 310 1 q 418 -21 375 -21 q 546 15 500 -21 q 592 115 592 51 l 592 242 q 574 294 585 278 q 453 347 538 347 l 333 347 q 311 350 322 349 q 300 360 300 351 l 300 476 q 307 496 304 493 l 592 789 q 596 806 596 793 l 596 824 q 583 863 596 863 l 128 863 q 113 867 119 863 q 99 889 99 875 l 99 992 q 108 1010 99 1003 q 128 1018 117 1018 l 774 1018 q 801 992 801 1018 l 801 778 q 750 690 801 751 q 631 564 708 640 q 586 518 592 524 q 563 483 563 493 q 621 456 563 464 q 720 417 679 447 q 781 351 761 388 q 796 300 796 324 l 796 110 z "},"4":{"ha":931,"x_min":81,"x_max":854,"o":"m 854 29 q 801 1 854 3 q 749 -26 749 0 l 749 -206 q 740 -219 749 -215 q 706 -222 732 -222 l 576 -222 q 551 -215 561 -222 q 540 -190 540 -207 l 540 -26 q 526 1 540 -6 q 483 7 513 7 l 463 7 l 118 7 q 87 12 93 7 q 81 29 81 17 l 81 208 q 90 256 81 236 q 235 494 122 311 q 438 822 336 658 q 540 989 489 906 q 569 1010 550 1004 q 607 1015 588 1015 l 735 1015 q 753 1003 753 1015 q 749 989 753 996 q 443 478 547 649 q 313 271 372 363 q 289 218 289 235 q 319 186 289 186 l 507 186 q 540 208 540 186 l 540 407 q 565 439 540 439 l 715 439 q 748 435 740 439 q 756 407 756 432 l 756 219 q 805 182 756 183 q 854 160 854 181 l 854 29 z "},"5":{"ha":906,"x_min":81,"x_max":840,"o":"m 840 886 q 817 861 840 861 l 303 861 q 290 840 290 861 l 290 529 q 301 522 290 524 q 314 524 311 521 q 360 554 343 544 q 547 606 450 606 q 751 525 668 606 q 835 321 835 444 l 835 133 q 731 -136 835 -51 q 419 -221 628 -221 q 286 -213 342 -221 q 185 -182 231 -206 q 106 -99 131 -154 q 81 26 81 -43 l 81 75 q 87 94 81 86 q 111 103 93 103 l 258 103 q 290 79 290 103 q 292 47 290 61 q 303 17 294 33 q 344 -18 318 -11 q 426 -25 371 -25 q 578 17 525 -25 q 632 150 632 60 l 632 246 q 599 361 632 311 q 457 431 551 431 q 373 417 414 431 q 314 385 332 404 q 299 374 304 374 l 282 374 l 104 374 q 88 389 88 374 l 88 981 q 97 1015 88 1008 q 146 1021 106 1021 l 811 1021 q 840 989 840 1021 l 840 886 z "},"6":{"ha":833,"x_min":56,"x_max":778,"o":"m 778 147 q 774 101 778 124 q 696 -83 757 8 q 591 -183 654 -146 q 468 -219 528 -219 l 394 -219 q 297 -200 349 -219 q 156 -99 217 -169 q 96 -6 121 -60 q 56 168 56 79 l 56 221 q 76 410 56 318 q 185 676 107 544 q 381 999 351 950 q 413 1019 393 1019 l 563 1019 q 589 1001 589 1019 q 585 988 589 996 l 361 579 q 360 563 356 568 q 375 561 364 558 q 435 571 401 567 q 507 575 468 575 q 592 565 556 575 q 704 497 660 547 q 763 360 742 454 q 778 249 778 290 l 778 147 m 575 147 l 575 229 q 572 276 574 258 q 542 368 565 332 q 497 397 528 390 q 428 404 465 404 l 408 404 q 299 376 328 404 q 267 303 281 358 q 260 256 265 296 q 254 208 254 217 l 254 186 q 265 95 254 132 q 301 31 276 58 q 355 -10 325 3 q 421 -24 385 -24 q 530 27 485 -24 q 575 147 575 78 z "},"7":{"ha":828,"x_min":72,"x_max":794,"o":"m 617 1017 l 767 1017 q 787 1009 779 1017 q 794 990 794 1001 l 794 692 q 789 671 794 672 l 444 61 l 444 -190 q 438 -203 440 -199 q 419 -217 428 -217 l 268 -217 q 243 -190 243 -217 l 243 126 q 249 150 243 142 l 592 761 l 592 817 l 275 817 l 275 718 q 268 706 271 710 q 249 693 258 693 l 99 693 q 81 700 89 693 q 72 718 72 707 l 72 839 l 72 990 q 99 1017 72 1017 l 249 1017 l 617 1017 z "},"8":{"ha":833,"x_min":54,"x_max":779,"o":"m 779 89 q 701 -117 779 -32 q 415 -222 604 -222 q 167 -150 253 -222 q 54 165 54 -56 l 54 197 q 108 375 54 299 q 186 463 171 443 q 196 482 196 472 q 190 494 196 489 q 128 590 147 542 q 108 696 108 639 q 113 763 108 726 q 119 813 117 800 q 253 994 156 950 q 426 1019 308 1019 q 669 939 593 1019 q 738 704 738 868 l 738 671 q 708 561 738 610 q 643 479 675 519 q 660 454 643 468 q 683 432 676 440 q 746 354 733 375 q 779 224 779 299 l 779 89 m 542 671 l 542 746 q 535 790 542 771 q 418 860 510 860 q 336 826 365 860 q 307 735 307 793 l 307 681 q 325 597 307 625 q 419 556 351 556 q 510 586 478 556 q 542 671 542 617 m 579 124 l 579 204 q 544 336 579 293 q 415 389 501 389 q 278 303 318 389 q 254 186 254 253 l 254 147 q 299 6 254 63 q 415 -51 343 -51 q 546 15 501 -51 q 579 124 579 65 z "},"9":{"ha":833,"x_min":78,"x_max":767,"o":"m 767 540 q 758 429 767 483 q 718 303 746 349 q 579 76 629 156 q 492 -58 522 -11 l 401 -201 q 365 -218 392 -218 l 178 -218 q 163 -199 163 -218 q 167 -182 163 -190 q 217 -101 192 -142 q 274 -15 260 -33 q 337 77 288 3 q 394 165 386 151 q 517 358 482 299 q 578 549 578 463 l 578 683 q 550 783 578 746 q 428 833 513 833 q 312 775 357 833 q 267 640 267 717 l 267 604 q 317 453 267 496 q 413 424 351 424 q 435 424 425 424 q 456 425 446 424 q 464 408 467 425 q 407 292 456 339 q 301 250 364 250 q 138 335 197 250 q 78 549 78 421 l 78 611 q 174 915 78 814 q 447 1015 269 1015 q 694 924 614 1015 q 767 697 767 842 l 767 540 z "}," ":{"ha":694,"x_min":0,"x_max":0,"o":""},"-":{"ha":803,"x_min":74,"x_max":768,"o":"m 768 397 l 768 276 q 762 258 768 263 q 744 253 756 253 l 94 253 q 74 276 74 253 l 74 401 q 94 421 74 421 l 744 421 q 768 397 768 421 z "},"A":{"ha":976,"x_min":43,"x_max":935,"o":"m 932 -201 q 913 -222 935 -222 l 758 -222 q 731 -201 736 -222 l 681 26 l 296 26 l 246 -201 q 217 -222 240 -222 l 64 -222 q 49 -215 56 -222 q 44 -201 43 -208 l 311 999 q 339 1019 317 1019 l 638 1019 q 665 999 661 1019 l 932 -201 m 603 194 q 631 199 626 194 q 636 214 636 204 q 635 231 635 225 l 507 813 q 500 822 506 821 q 489 825 494 824 q 476 824 483 825 q 468 813 469 822 l 342 231 q 346 201 336 207 q 374 194 353 194 l 603 194 z "},"B":{"ha":910,"x_min":75,"x_max":872,"o":"m 872 147 q 793 -92 872 14 q 528 -222 696 -222 l 111 -222 q 75 -193 75 -222 l 75 982 q 85 1012 75 1007 q 131 1017 94 1017 l 511 1017 q 736 935 653 1017 q 819 725 819 853 q 783 572 819 649 q 683 457 747 494 l 679 450 q 683 443 681 443 q 819 308 763 403 q 872 147 872 221 m 617 639 q 621 683 621 656 q 606 765 621 731 q 539 835 585 813 q 475 852 514 846 q 396 858 436 858 l 324 858 q 292 855 303 858 q 282 839 282 851 l 282 533 q 310 510 282 510 l 461 510 q 583 560 543 510 q 617 639 604 586 m 663 121 q 667 165 667 142 q 653 239 667 204 q 607 311 640 274 q 543 353 585 336 q 464 369 501 369 l 313 369 q 282 360 288 369 q 276 331 276 351 l 276 -11 q 303 -37 276 -37 l 472 -37 q 603 17 547 -37 q 663 121 650 63 z "},"C":{"ha":935,"x_min":81,"x_max":864,"o":"m 864 153 q 751 -132 864 -32 q 481 -224 647 -224 q 253 -185 338 -224 q 99 -8 139 -133 q 90 17 93 6 q 81 88 81 54 l 81 850 q 122 967 81 924 q 275 1019 172 1019 l 689 1019 q 771 1003 747 1019 q 794 950 794 986 q 782 769 794 878 q 768 669 778 732 q 750 650 768 650 l 628 650 q 599 658 606 650 q 592 685 592 667 l 592 868 l 363 868 q 301 855 321 868 q 281 799 281 842 l 281 153 q 330 10 281 64 q 464 -43 379 -43 q 558 -27 525 -43 q 624 23 592 -11 q 668 107 656 57 q 676 193 676 140 q 699 204 676 204 l 833 204 q 858 194 853 204 q 864 153 864 185 z "},"D":{"ha":910,"x_min":57,"x_max":853,"o":"m 853 76 q 788 -137 853 -64 q 557 -221 714 -221 l 99 -221 q 71 -218 85 -221 q 57 -203 57 -215 l 57 -58 q 117 -24 57 -54 q 146 4 146 -8 l 146 808 q 105 843 146 824 q 64 871 64 863 l 64 1001 q 73 1013 64 1008 q 93 1017 82 1017 l 581 1017 q 680 994 622 1017 q 769 940 738 971 q 821 872 797 914 q 853 764 853 815 l 853 76 m 651 76 l 651 747 q 611 825 651 792 q 510 858 571 858 l 376 858 q 353 851 365 858 q 342 832 342 843 l 342 -3 q 350 -22 342 -18 q 390 -26 358 -26 l 453 -26 q 632 11 592 -26 q 651 76 651 29 z "},"E":{"ha":872,"x_min":65,"x_max":829,"o":"m 829 -203 q 829 -212 829 -207 q 807 -221 825 -221 l 104 -221 q 72 -214 79 -221 q 65 -181 65 -207 l 65 999 q 89 1022 65 1022 l 740 1022 q 765 1003 765 1022 l 765 888 q 736 868 765 868 l 282 868 q 256 851 258 868 q 253 799 253 833 l 253 608 q 258 587 253 592 q 290 582 264 582 l 599 582 q 628 574 618 582 q 639 554 639 567 l 639 460 q 628 438 639 443 q 604 432 617 432 l 304 432 q 259 429 265 432 q 253 403 253 426 l 253 -3 q 290 -22 253 -22 l 799 -22 q 829 -42 829 -22 l 829 -203 z "},"F":{"ha":875,"x_min":76,"x_max":849,"o":"m 849 988 l 849 886 q 825 863 849 863 l 354 863 q 291 837 311 863 q 271 779 271 811 l 271 414 q 283 403 276 408 l 711 403 q 739 385 739 403 l 739 239 q 722 219 739 219 l 289 219 q 271 208 271 219 l 271 -201 q 246 -224 271 -224 l 172 -224 q 145 -224 158 -224 q 121 -225 132 -224 q 85 -219 94 -225 q 76 -196 76 -214 l 76 892 q 119 981 76 943 q 233 1019 163 1019 l 807 1019 q 841 1015 833 1019 q 849 988 849 1010 z "},"G":{"ha":894,"x_min":61,"x_max":829,"o":"m 829 -192 q 824 -215 829 -212 q 806 -217 818 -217 l 710 -217 q 660 -131 700 -217 q 622 -90 642 -90 q 567 -152 600 -119 q 501 -201 535 -185 q 430 -223 478 -212 q 350 -233 382 -233 q 143 -147 231 -233 q 61 29 61 -67 l 61 811 q 99 911 61 864 q 186 982 143 968 q 258 1007 225 1000 q 324 1014 290 1014 l 357 1014 l 617 1014 q 749 969 692 1014 q 806 876 806 925 l 806 749 q 783 725 806 725 l 639 725 q 613 749 613 725 l 613 831 q 588 854 613 849 q 518 860 564 860 l 360 860 q 271 810 299 860 q 254 758 263 793 l 254 63 q 290 -25 254 0 q 431 -50 326 -50 q 578 -15 510 -50 q 647 67 647 21 l 647 265 q 628 285 647 285 l 429 285 q 406 301 406 285 l 406 422 q 425 438 406 438 l 783 438 q 815 428 800 438 q 829 397 829 418 l 829 -192 z "},"H":{"ha":886,"x_min":74,"x_max":819,"o":"m 819 -214 q 806 -226 819 -226 l 651 -226 q 636 -214 636 -226 l 636 342 q 618 357 636 357 l 278 357 q 261 342 261 357 l 261 -201 q 247 -219 261 -219 l 89 -219 q 81 -219 85 -219 q 74 -201 74 -217 l 74 1004 q 89 1019 74 1019 l 242 1019 q 261 1004 261 1019 l 261 565 q 272 553 261 553 l 625 553 q 636 565 636 553 l 636 1004 q 651 1017 636 1017 l 806 1017 q 819 1004 819 1017 l 819 -214 z "},"I":{"ha":685,"x_min":57,"x_max":640,"o":"m 640 -207 q 626 -218 640 -218 l 74 -218 q 57 -200 57 -218 l 57 -46 q 67 -35 57 -37 l 254 3 q 264 15 260 6 l 264 797 q 263 817 264 807 q 249 838 263 828 q 206 869 228 853 q 185 900 185 886 l 185 986 q 192 1008 185 997 q 219 1019 200 1019 l 493 1019 q 522 993 522 1019 l 522 893 q 499 867 522 882 q 451 835 458 842 q 444 797 444 829 l 444 3 q 454 -6 444 -6 l 626 -31 q 640 -40 640 -31 l 640 -207 z "},"J":{"ha":865,"x_min":64,"x_max":818,"o":"m 818 44 q 753 -147 818 -65 q 601 -229 688 -229 l 293 -229 q 153 -172 217 -229 q 64 57 64 -93 l 64 189 q 82 207 64 207 l 233 207 q 253 192 253 207 q 252 160 253 175 q 251 133 251 146 q 254 72 251 101 q 267 21 257 43 q 335 -33 289 -33 l 581 -33 q 617 -17 607 -33 q 626 29 626 -1 l 626 849 q 617 863 626 863 l 335 863 q 323 867 325 863 q 321 879 321 871 l 321 1000 q 340 1017 321 1017 l 801 1017 q 818 1000 818 1017 l 818 44 z "},"K":{"ha":904,"x_min":65,"x_max":876,"o":"m 867 983 l 503 493 q 494 475 494 482 q 498 465 494 471 q 503 454 501 458 l 688 128 q 771 -22 744 26 q 872 -206 861 -183 q 876 -218 876 -212 q 861 -229 876 -229 l 711 -229 q 683 -226 689 -229 q 675 -214 678 -219 q 607 -104 613 -114 q 490 89 549 -7 q 379 272 393 249 q 365 281 375 281 q 356 276 360 281 q 310 226 344 265 q 257 167 276 186 q 251 138 251 157 l 251 -206 q 233 -224 251 -224 l 83 -224 q 65 -206 65 -224 l 65 1000 q 79 1019 65 1019 l 238 1019 q 257 1006 257 1019 l 257 518 q 265 475 257 475 q 274 481 268 475 q 390 624 297 506 q 557 840 463 715 q 675 994 651 964 q 711 1011 686 1011 l 861 1011 q 874 1001 874 1011 q 867 983 874 994 z "},"L":{"ha":935,"x_min":61,"x_max":872,"o":"m 872 -122 q 853 -187 872 -164 q 775 -218 828 -218 l 79 -218 q 61 -200 61 -218 l 61 1006 q 75 1021 61 1021 l 251 1021 q 265 1006 265 1021 l 265 4 q 281 -22 265 -22 l 654 -22 q 669 -8 669 -22 l 669 156 q 688 169 669 169 l 842 169 q 872 156 872 169 l 872 -122 z "},"M":{"ha":935,"x_min":65,"x_max":872,"o":"m 872 -218 q 861 -233 872 -233 l 699 -233 q 688 -232 693 -233 q 683 -218 683 -231 l 683 586 q 678 596 683 594 q 667 586 672 597 l 478 189 q 465 178 469 178 q 449 189 456 178 q 353 395 426 221 q 267 599 279 569 q 259 604 264 606 q 254 593 254 603 l 254 -211 q 253 -225 254 -224 q 239 -225 246 -225 l 76 -225 q 65 -211 65 -225 l 65 1000 q 76 1018 65 1018 l 179 1018 q 203 1008 199 1019 l 449 483 q 465 468 457 468 q 483 483 475 468 l 735 1000 q 756 1013 742 1013 l 861 1013 q 872 1000 872 1013 l 872 -218 z "},"N":{"ha":950,"x_min":67,"x_max":886,"o":"m 886 -211 q 878 -228 886 -228 l 721 -228 q 706 -221 710 -228 q 701 -200 703 -210 l 282 575 q 274 579 279 581 q 268 567 268 578 l 268 -207 q 258 -221 268 -221 l 79 -221 q 67 -207 67 -221 l 67 1001 q 79 1015 67 1015 l 208 1015 q 228 1007 228 1015 q 230 995 228 999 q 233 992 232 992 q 369 772 278 921 q 506 546 375 763 q 672 271 510 539 q 683 264 676 264 q 693 281 693 264 l 693 1001 q 701 1013 693 1013 l 874 1013 q 886 1001 886 1013 l 886 -211 z "},"O":{"ha":882,"x_min":43,"x_max":835,"o":"m 436 -226 q 149 -111 244 -226 q 43 288 43 15 q 51 444 43 358 q 203 901 81 757 q 436 1015 299 1015 q 671 904 575 1015 q 826 454 796 760 q 835 288 835 364 q 728 -108 835 18 q 436 -226 628 -226 m 647 369 q 631 550 647 465 q 588 701 615 635 q 528 807 561 767 q 438 860 485 860 q 343 810 382 860 q 286 699 317 776 q 247 553 263 640 q 231 369 231 465 q 240 178 231 247 q 283 40 249 108 q 329 -15 303 3 q 433 -40 365 -40 q 546 -1 497 -40 q 607 72 579 25 q 639 193 631 113 q 647 369 647 274 z "},"P":{"ha":894,"x_min":72,"x_max":856,"o":"m 856 608 q 694 254 856 351 q 411 193 593 193 l 349 193 q 332 188 335 193 q 329 158 329 182 l 329 -215 q 317 -229 329 -229 l 149 -229 q 138 -215 138 -229 l 133 849 q 125 867 133 864 q 86 871 117 871 q 72 875 72 871 l 72 1006 q 86 1019 72 1019 l 458 1019 q 728 915 614 1019 q 856 608 856 799 m 679 653 q 589 811 679 753 q 422 858 515 858 l 349 858 q 339 844 339 858 l 339 368 q 369 361 339 361 q 399 363 379 361 q 422 364 418 364 q 642 446 583 364 q 679 607 679 499 l 679 653 z "},"Q":{"ha":903,"x_min":72,"x_max":847,"o":"m 847 296 q 808 139 847 203 q 721 0 764 69 q 783 -122 721 -22 q 829 -196 821 -182 q 833 -211 833 -204 q 822 -222 833 -222 q 535 -222 611 -222 q 354 -222 458 -222 q 160 -131 239 -222 q 72 142 72 -29 l 72 746 q 177 949 72 879 q 460 1018 282 1018 q 701 964 588 1018 q 847 775 847 894 l 847 296 m 651 139 l 651 732 q 617 810 651 775 q 465 860 567 860 q 304 814 357 860 q 268 746 268 782 l 268 136 q 288 36 268 71 q 442 -33 328 -33 l 528 -33 q 538 -25 538 -33 q 535 -17 538 -21 q 533 -11 533 -12 q 444 121 478 71 q 365 243 382 214 q 358 261 358 257 q 374 269 358 269 l 504 269 q 521 264 515 269 l 622 136 q 646 125 632 122 q 651 139 651 129 z "},"R":{"ha":828,"x_min":50,"x_max":819,"o":"m 806 -187 q 819 -218 819 -212 q 806 -226 819 -226 l 646 -226 q 625 -214 633 -226 q 525 -51 617 -201 q 383 178 453 64 q 296 321 313 293 q 290 344 290 331 l 290 481 q 292 501 290 497 q 307 504 294 504 l 335 504 q 469 515 424 504 q 547 583 547 533 l 547 822 q 526 853 547 847 q 464 858 504 858 l 268 858 q 254 854 263 858 q 242 846 246 850 l 242 -215 q 229 -224 242 -224 l 63 -224 q 50 -211 50 -224 l 50 976 q 81 1017 50 1017 l 664 1017 q 744 989 724 1017 q 761 917 761 967 l 761 607 q 640 440 761 515 q 515 365 578 403 q 505 350 510 361 q 503 335 500 339 q 649 78 569 215 q 806 -187 767 -128 z "},"S":{"ha":861,"x_min":44,"x_max":833,"o":"m 833 93 q 722 -133 833 -46 q 438 -219 610 -219 q 175 -147 288 -219 q 44 82 44 -62 l 44 97 q 44 117 44 107 q 72 126 47 126 l 208 126 q 228 110 228 126 q 234 57 228 81 q 267 11 240 33 q 336 -24 293 -11 q 446 -36 379 -36 q 608 8 563 -36 q 639 86 639 38 q 493 263 639 163 q 339 360 453 290 q 151 538 225 429 q 93 700 93 624 q 150 899 93 825 q 471 1017 240 1017 q 719 938 621 1017 q 817 754 817 858 l 817 717 q 807 706 817 706 l 657 706 q 644 717 644 706 q 636 766 644 739 q 607 815 628 793 q 549 850 586 836 q 475 864 511 864 q 346 828 403 864 q 289 736 289 792 q 335 629 289 678 q 453 539 369 592 q 613 436 589 453 q 771 289 721 358 q 833 93 833 201 z "},"T":{"ha":919,"x_min":72,"x_max":853,"o":"m 853 828 q 844 818 853 818 l 568 818 q 551 807 551 818 l 551 -207 q 536 -221 551 -221 l 368 -221 q 357 -211 357 -221 l 357 797 q 338 818 357 818 l 82 818 q 72 832 72 818 l 72 1001 q 79 1013 72 1006 q 82 1015 81 1014 l 840 1015 q 853 1001 853 1015 l 853 828 z "},"U":{"ha":872,"x_min":65,"x_max":817,"o":"m 817 -199 q 807 -211 817 -211 l 647 -211 q 633 -199 633 -211 l 633 -153 q 635 -142 635 -147 q 635 -133 635 -136 q 614 -104 635 -104 q 492 -186 563 -150 q 338 -222 421 -222 q 145 -137 225 -222 q 65 54 65 -51 l 65 1006 q 82 1019 65 1019 l 242 1019 q 257 1008 257 1019 l 257 107 q 286 25 257 57 q 413 -19 326 -19 q 569 56 510 -19 q 625 222 625 125 l 625 989 q 625 1010 625 999 q 639 1019 628 1019 l 807 1019 q 817 1006 817 1019 l 817 -199 z "},"V":{"ha":942,"x_min":43,"x_max":907,"o":"m 901 999 q 803 619 889 949 q 685 163 725 321 q 597 -183 622 -82 q 542 -224 588 -224 l 338 -224 q 308 -221 315 -224 q 281 -172 288 -212 q 211 165 263 -79 q 114 633 147 467 q 44 986 56 922 q 43 1004 43 993 q 67 1022 43 1022 l 197 1022 q 226 999 222 1022 q 296 664 240 938 q 381 247 322 535 q 422 43 401 144 q 446 19 428 19 q 468 45 461 19 q 535 311 475 71 q 639 733 586 518 q 708 1006 692 947 q 726 1019 713 1019 l 889 1019 q 901 999 907 1019 z "},"W":{"ha":860,"x_min":21,"x_max":839,"o":"m 24 1000 q 39 1019 21 1019 l 185 1019 q 197 1016 190 1018 q 203 1004 203 1014 l 290 211 q 299 199 290 199 q 308 207 306 199 q 344 332 326 269 q 419 546 381 450 q 439 554 424 554 q 463 546 460 554 q 508 406 483 493 q 569 203 563 219 q 578 199 571 199 q 585 203 585 200 l 660 1000 q 676 1018 660 1018 l 825 1018 q 839 1004 839 1018 l 746 -212 q 732 -231 744 -231 l 632 -231 q 601 -206 608 -231 q 514 44 594 -182 q 453 224 474 160 q 436 231 450 231 q 425 224 428 231 q 340 -6 396 150 q 267 -212 322 -57 q 246 -225 261 -225 l 132 -225 q 114 -206 114 -225 l 24 1000 z "},"X":{"ha":914,"x_min":38,"x_max":881,"o":"m 669 996 l 458 593 l 249 996 q 215 1018 236 1018 l 51 1018 q 40 1012 43 1018 q 42 996 38 1006 l 356 397 l 43 -199 q 40 -213 38 -207 q 51 -219 43 -219 l 215 -219 q 249 -199 236 -219 l 458 203 l 669 -199 q 701 -219 682 -219 l 867 -219 q 878 -213 875 -219 q 875 -199 881 -207 l 561 397 l 876 996 q 878 1011 881 1004 q 867 1018 875 1018 l 703 1018 q 669 996 682 1018 z "},"Y":{"ha":871,"x_min":18,"x_max":853,"o":"m 850 985 q 796 831 822 907 q 708 582 715 604 q 636 367 657 432 q 582 279 607 319 q 532 179 532 199 l 532 -200 q 508 -221 532 -221 l 356 -221 q 336 -200 336 -221 l 336 179 q 286 278 336 193 q 233 367 260 322 q 151 622 192 494 q 78 844 136 668 q 25 997 42 954 q 39 1019 18 1019 l 188 1019 q 214 1004 208 1019 l 369 542 q 414 408 392 475 q 443 382 424 382 q 469 407 458 382 q 517 539 476 422 l 672 990 q 684 1009 678 1007 q 700 1011 690 1011 l 838 1011 q 853 997 853 1011 q 850 985 853 990 z "},"Z":{"ha":929,"x_min":78,"x_max":867,"o":"m 867 -204 q 847 -221 867 -221 l 94 -221 q 78 -208 78 -221 l 78 -31 q 78 -18 78 -24 q 83 -7 79 -12 q 247 251 125 60 q 486 624 338 392 q 621 832 611 818 q 626 844 626 840 q 604 853 626 853 l 107 853 q 83 871 83 853 l 83 994 q 100 1015 83 1015 l 833 1015 q 861 989 861 1015 l 861 853 q 860 843 861 847 q 857 836 858 839 q 819 768 826 781 q 728 631 792 722 q 606 443 724 625 q 414 145 513 300 q 315 -19 315 -10 q 329 -36 315 -36 l 847 -36 q 867 -50 867 -36 l 867 -204 z "},"a":{"ha":976,"x_min":43,"x_max":935,"o":"m 932 -201 q 913 -222 935 -222 l 758 -222 q 731 -201 736 -222 l 681 26 l 296 26 l 246 -201 q 217 -222 240 -222 l 64 -222 q 49 -215 56 -222 q 44 -201 43 -208 l 311 999 q 339 1019 317 1019 l 638 1019 q 665 999 661 1019 l 932 -201 m 603 194 q 631 199 626 194 q 636 214 636 204 q 635 231 635 225 l 507 813 q 500 822 506 821 q 489 825 494 824 q 476 824 483 825 q 468 813 469 822 l 342 231 q 346 201 336 207 q 374 194 353 194 l 603 194 z "},"b":{"ha":910,"x_min":75,"x_max":872,"o":"m 872 147 q 793 -92 872 14 q 528 -222 696 -222 l 111 -222 q 75 -193 75 -222 l 75 982 q 85 1012 75 1007 q 131 1017 94 1017 l 511 1017 q 736 935 653 1017 q 819 725 819 853 q 783 572 819 649 q 683 457 747 494 l 679 450 q 683 443 681 443 q 819 308 763 403 q 872 147 872 221 m 617 639 q 621 683 621 656 q 606 765 621 731 q 539 835 585 813 q 475 852 514 846 q 396 858 436 858 l 324 858 q 292 855 303 858 q 282 839 282 851 l 282 533 q 310 510 282 510 l 461 510 q 583 560 543 510 q 617 639 604 586 m 663 121 q 667 165 667 142 q 653 239 667 204 q 607 311 640 274 q 543 353 585 336 q 464 369 501 369 l 313 369 q 282 360 288 369 q 276 331 276 351 l 276 -11 q 303 -37 276 -37 l 472 -37 q 603 17 547 -37 q 663 121 650 63 z "},"c":{"ha":935,"x_min":81,"x_max":864,"o":"m 864 153 q 751 -132 864 -32 q 481 -224 647 -224 q 253 -185 338 -224 q 99 -8 139 -133 q 90 17 93 6 q 81 88 81 54 l 81 850 q 122 967 81 924 q 275 1019 172 1019 l 689 1019 q 771 1003 747 1019 q 794 950 794 986 q 782 769 794 878 q 768 669 778 732 q 750 650 768 650 l 628 650 q 599 658 606 650 q 592 685 592 667 l 592 868 l 363 868 q 301 855 321 868 q 281 799 281 842 l 281 153 q 330 10 281 64 q 464 -43 379 -43 q 558 -27 525 -43 q 624 23 592 -11 q 668 107 656 57 q 676 193 676 140 q 699 204 676 204 l 833 204 q 858 194 853 204 q 864 153 864 185 z "},"d":{"ha":910,"x_min":57,"x_max":853,"o":"m 853 76 q 788 -137 853 -64 q 557 -221 714 -221 l 99 -221 q 71 -218 85 -221 q 57 -203 57 -215 l 57 -58 q 117 -24 57 -54 q 146 4 146 -8 l 146 808 q 105 843 146 824 q 64 871 64 863 l 64 1001 q 73 1013 64 1008 q 93 1017 82 1017 l 581 1017 q 680 994 622 1017 q 769 940 738 971 q 821 872 797 914 q 853 764 853 815 l 853 76 m 651 76 l 651 747 q 611 825 651 792 q 510 858 571 858 l 376 858 q 353 851 365 858 q 342 832 342 843 l 342 -3 q 350 -22 342 -18 q 390 -26 358 -26 l 453 -26 q 632 11 592 -26 q 651 76 651 29 z "},"e":{"ha":872,"x_min":65,"x_max":829,"o":"m 829 -203 q 829 -212 829 -207 q 807 -221 825 -221 l 104 -221 q 72 -214 79 -221 q 65 -181 65 -207 l 65 999 q 89 1022 65 1022 l 740 1022 q 765 1003 765 1022 l 765 888 q 736 868 765 868 l 282 868 q 256 851 258 868 q 253 799 253 833 l 253 608 q 258 587 253 592 q 290 582 264 582 l 599 582 q 628 574 618 582 q 639 554 639 567 l 639 460 q 628 438 639 443 q 604 432 617 432 l 304 432 q 259 429 265 432 q 253 403 253 426 l 253 -3 q 290 -22 253 -22 l 799 -22 q 829 -42 829 -22 l 829 -203 z "},"f":{"ha":875,"x_min":76,"x_max":849,"o":"m 849 988 l 849 886 q 825 863 849 863 l 354 863 q 291 837 311 863 q 271 779 271 811 l 271 414 q 283 403 276 408 l 711 403 q 739 385 739 403 l 739 239 q 722 219 739 219 l 289 219 q 271 208 271 219 l 271 -201 q 246 -224 271 -224 l 172 -224 q 145 -224 158 -224 q 121 -225 132 -224 q 85 -219 94 -225 q 76 -196 76 -214 l 76 892 q 119 981 76 943 q 233 1019 163 1019 l 807 1019 q 841 1015 833 1019 q 849 988 849 1010 z "},"g":{"ha":894,"x_min":61,"x_max":829,"o":"m 829 -192 q 824 -215 829 -212 q 806 -217 818 -217 l 710 -217 q 660 -131 700 -217 q 622 -90 642 -90 q 567 -152 600 -119 q 501 -201 535 -185 q 430 -223 478 -212 q 350 -233 382 -233 q 143 -147 231 -233 q 61 29 61 -67 l 61 811 q 99 911 61 864 q 186 982 143 968 q 258 1007 225 1000 q 324 1014 290 1014 l 357 1014 l 617 1014 q 749 969 692 1014 q 806 876 806 925 l 806 749 q 783 725 806 725 l 639 725 q 613 749 613 725 l 613 831 q 588 854 613 849 q 518 860 564 860 l 360 860 q 271 810 299 860 q 254 758 263 793 l 254 63 q 290 -25 254 0 q 431 -50 326 -50 q 578 -15 510 -50 q 647 67 647 21 l 647 265 q 628 285 647 285 l 429 285 q 406 301 406 285 l 406 422 q 425 438 406 438 l 783 438 q 815 428 800 438 q 829 397 829 418 l 829 -192 z "},"h":{"ha":886,"x_min":74,"x_max":819,"o":"m 819 -214 q 806 -226 819 -226 l 651 -226 q 636 -214 636 -226 l 636 342 q 618 357 636 357 l 278 357 q 261 342 261 357 l 261 -201 q 247 -219 261 -219 l 89 -219 q 81 -219 85 -219 q 74 -201 74 -217 l 74 1004 q 89 1019 74 1019 l 242 1019 q 261 1004 261 1019 l 261 565 q 272 553 261 553 l 625 553 q 636 565 636 553 l 636 1004 q 651 1017 636 1017 l 806 1017 q 819 1004 819 1017 l 819 -214 z "},"i":{"ha":685,"x_min":57,"x_max":640,"o":"m 640 -207 q 626 -218 640 -218 l 74 -218 q 57 -200 57 -218 l 57 -46 q 67 -35 57 -37 l 254 3 q 264 15 260 6 l 264 797 q 263 817 264 807 q 249 838 263 828 q 206 869 228 853 q 185 900 185 886 l 185 986 q 192 1008 185 997 q 219 1019 200 1019 l 493 1019 q 522 993 522 1019 l 522 893 q 499 867 522 882 q 451 835 458 842 q 444 797 444 829 l 444 3 q 454 -6 444 -6 l 626 -31 q 640 -40 640 -31 l 640 -207 z "},"j":{"ha":865,"x_min":64,"x_max":818,"o":"m 818 44 q 753 -147 818 -65 q 601 -229 688 -229 l 293 -229 q 153 -172 217 -229 q 64 57 64 -93 l 64 189 q 82 207 64 207 l 233 207 q 253 192 253 207 q 252 160 253 175 q 251 133 251 146 q 254 72 251 101 q 267 21 257 43 q 335 -33 289 -33 l 581 -33 q 617 -17 607 -33 q 626 29 626 -1 l 626 849 q 617 863 626 863 l 335 863 q 323 867 325 863 q 321 879 321 871 l 321 1000 q 340 1017 321 1017 l 801 1017 q 818 1000 818 1017 l 818 44 z "},"k":{"ha":904,"x_min":65,"x_max":876,"o":"m 867 983 l 503 493 q 494 475 494 482 q 498 465 494 471 q 503 454 501 458 l 688 128 q 771 -22 744 26 q 872 -206 861 -183 q 876 -218 876 -212 q 861 -229 876 -229 l 711 -229 q 683 -226 689 -229 q 675 -214 678 -219 q 607 -104 613 -114 q 490 89 549 -7 q 379 272 393 249 q 365 281 375 281 q 356 276 360 281 q 310 226 344 265 q 257 167 276 186 q 251 138 251 157 l 251 -206 q 233 -224 251 -224 l 83 -224 q 65 -206 65 -224 l 65 1000 q 79 1019 65 1019 l 238 1019 q 257 1006 257 1019 l 257 518 q 265 475 257 475 q 274 481 268 475 q 390 624 297 506 q 557 840 463 715 q 675 994 651 964 q 711 1011 686 1011 l 861 1011 q 874 1001 874 1011 q 867 983 874 994 z "},"l":{"ha":935,"x_min":61,"x_max":872,"o":"m 872 -122 q 853 -187 872 -164 q 775 -218 828 -218 l 79 -218 q 61 -200 61 -218 l 61 1006 q 75 1021 61 1021 l 251 1021 q 265 1006 265 1021 l 265 4 q 281 -22 265 -22 l 654 -22 q 669 -8 669 -22 l 669 156 q 688 169 669 169 l 842 169 q 872 156 872 169 l 872 -122 z "},"m":{"ha":935,"x_min":65,"x_max":872,"o":"m 872 -218 q 861 -233 872 -233 l 699 -233 q 688 -232 693 -233 q 683 -218 683 -231 l 683 586 q 678 596 683 594 q 667 586 672 597 l 478 189 q 465 178 469 178 q 449 189 456 178 q 353 395 426 221 q 267 599 279 569 q 259 604 264 606 q 254 593 254 603 l 254 -211 q 253 -225 254 -224 q 239 -225 246 -225 l 76 -225 q 65 -211 65 -225 l 65 1000 q 76 1018 65 1018 l 179 1018 q 203 1008 199 1019 l 449 483 q 465 468 457 468 q 483 483 475 468 l 735 1000 q 756 1013 742 1013 l 861 1013 q 872 1000 872 1013 l 872 -218 z "},"n":{"ha":950,"x_min":67,"x_max":886,"o":"m 886 -211 q 878 -228 886 -228 l 721 -228 q 706 -221 710 -228 q 701 -200 703 -210 l 282 575 q 274 579 279 581 q 268 567 268 578 l 268 -207 q 258 -221 268 -221 l 79 -221 q 67 -207 67 -221 l 67 1001 q 79 1015 67 1015 l 208 1015 q 228 1007 228 1015 q 230 995 228 999 q 233 992 232 992 q 369 772 278 921 q 506 546 375 763 q 672 271 510 539 q 683 264 676 264 q 693 281 693 264 l 693 1001 q 701 1013 693 1013 l 874 1013 q 886 1001 886 1013 l 886 -211 z "},"o":{"ha":882,"x_min":43,"x_max":835,"o":"m 436 -226 q 149 -111 244 -226 q 43 288 43 15 q 51 444 43 358 q 203 901 81 757 q 436 1015 299 1015 q 671 904 575 1015 q 826 454 796 760 q 835 288 835 364 q 728 -108 835 18 q 436 -226 628 -226 m 647 369 q 631 550 647 465 q 588 701 615 635 q 528 807 561 767 q 438 860 485 860 q 343 810 382 860 q 286 699 317 776 q 247 553 263 640 q 231 369 231 465 q 240 178 231 247 q 283 40 249 108 q 329 -15 303 3 q 433 -40 365 -40 q 546 -1 497 -40 q 607 72 579 25 q 639 193 631 113 q 647 369 647 274 z "},"p":{"ha":894,"x_min":72,"x_max":856,"o":"m 856 608 q 694 254 856 351 q 411 193 593 193 l 349 193 q 332 188 335 193 q 329 158 329 182 l 329 -215 q 317 -229 329 -229 l 149 -229 q 138 -215 138 -229 l 133 849 q 125 867 133 864 q 86 871 117 871 q 72 875 72 871 l 72 1006 q 86 1019 72 1019 l 458 1019 q 728 915 614 1019 q 856 608 856 799 m 679 653 q 589 811 679 753 q 422 858 515 858 l 349 858 q 339 844 339 858 l 339 368 q 369 361 339 361 q 399 363 379 361 q 422 364 418 364 q 642 446 583 364 q 679 607 679 499 l 679 653 z "},"q":{"ha":903,"x_min":72,"x_max":847,"o":"m 847 296 q 808 139 847 203 q 721 0 764 69 q 783 -122 721 -22 q 829 -196 821 -182 q 833 -211 833 -204 q 822 -222 833 -222 q 535 -222 611 -222 q 354 -222 458 -222 q 160 -131 239 -222 q 72 142 72 -29 l 72 746 q 177 949 72 879 q 460 1018 282 1018 q 701 964 588 1018 q 847 775 847 894 l 847 296 m 651 139 l 651 732 q 617 810 651 775 q 465 860 567 860 q 304 814 357 860 q 268 746 268 782 l 268 136 q 288 36 268 71 q 442 -33 328 -33 l 528 -33 q 538 -25 538 -33 q 535 -17 538 -21 q 533 -11 533 -12 q 444 121 478 71 q 365 243 382 214 q 358 261 358 257 q 374 269 358 269 l 504 269 q 521 264 515 269 l 622 136 q 646 125 632 122 q 651 139 651 129 z "},"r":{"ha":828,"x_min":50,"x_max":819,"o":"m 806 -187 q 819 -218 819 -212 q 806 -226 819 -226 l 646 -226 q 625 -214 633 -226 q 525 -51 617 -201 q 383 178 453 64 q 296 321 313 293 q 290 344 290 331 l 290 481 q 292 501 290 497 q 307 504 294 504 l 335 504 q 469 515 424 504 q 547 583 547 533 l 547 822 q 526 853 547 847 q 464 858 504 858 l 268 858 q 254 854 263 858 q 242 846 246 850 l 242 -215 q 229 -224 242 -224 l 63 -224 q 50 -211 50 -224 l 50 976 q 81 1017 50 1017 l 664 1017 q 744 989 724 1017 q 761 917 761 967 l 761 607 q 640 440 761 515 q 515 365 578 403 q 505 350 510 361 q 503 335 500 339 q 649 78 569 215 q 806 -187 767 -128 z "},"s":{"ha":861,"x_min":44,"x_max":833,"o":"m 833 93 q 722 -133 833 -46 q 438 -219 610 -219 q 175 -147 288 -219 q 44 82 44 -62 l 44 97 q 44 117 44 107 q 72 126 47 126 l 208 126 q 228 110 228 126 q 234 57 228 81 q 267 11 240 33 q 336 -24 293 -11 q 446 -36 379 -36 q 608 8 563 -36 q 639 86 639 38 q 493 263 639 163 q 339 360 453 290 q 151 538 225 429 q 93 700 93 624 q 150 899 93 825 q 471 1017 240 1017 q 719 938 621 1017 q 817 754 817 858 l 817 717 q 807 706 817 706 l 657 706 q 644 717 644 706 q 636 766 644 739 q 607 815 628 793 q 549 850 586 836 q 475 864 511 864 q 346 828 403 864 q 289 736 289 792 q 335 629 289 678 q 453 539 369 592 q 613 436 589 453 q 771 289 721 358 q 833 93 833 201 z "},"t":{"ha":919,"x_min":72,"x_max":853,"o":"m 853 828 q 844 818 853 818 l 568 818 q 551 807 551 818 l 551 -207 q 536 -221 551 -221 l 368 -221 q 357 -211 357 -221 l 357 797 q 338 818 357 818 l 82 818 q 72 832 72 818 l 72 1001 q 79 1013 72 1006 q 82 1015 81 1014 l 840 1015 q 853 1001 853 1015 l 853 828 z "},"u":{"ha":872,"x_min":65,"x_max":817,"o":"m 817 -199 q 807 -211 817 -211 l 647 -211 q 633 -199 633 -211 l 633 -153 q 635 -142 635 -147 q 635 -133 635 -136 q 614 -104 635 -104 q 492 -186 563 -150 q 338 -222 421 -222 q 145 -137 225 -222 q 65 54 65 -51 l 65 1006 q 82 1019 65 1019 l 242 1019 q 257 1008 257 1019 l 257 107 q 286 25 257 57 q 413 -19 326 -19 q 569 56 510 -19 q 625 222 625 125 l 625 989 q 625 1010 625 999 q 639 1019 628 1019 l 807 1019 q 817 1006 817 1019 l 817 -199 z "},"v":{"ha":942,"x_min":43,"x_max":907,"o":"m 901 999 q 803 619 889 949 q 685 163 725 321 q 597 -183 622 -82 q 542 -224 588 -224 l 338 -224 q 308 -221 315 -224 q 281 -172 288 -212 q 211 165 263 -79 q 114 633 147 467 q 44 986 56 922 q 43 1004 43 993 q 67 1022 43 1022 l 197 1022 q 226 999 222 1022 q 296 664 240 938 q 381 247 322 535 q 422 43 401 144 q 446 19 428 19 q 468 45 461 19 q 535 311 475 71 q 639 733 586 518 q 708 1006 692 947 q 726 1019 713 1019 l 889 1019 q 901 999 907 1019 z "},"w":{"ha":860,"x_min":21,"x_max":839,"o":"m 24 1000 q 39 1019 21 1019 l 185 1019 q 197 1016 190 1018 q 203 1004 203 1014 l 290 211 q 299 199 290 199 q 308 207 306 199 q 344 332 326 269 q 419 546 381 450 q 439 554 424 554 q 463 546 460 554 q 508 406 483 493 q 569 203 563 219 q 578 199 571 199 q 585 203 585 200 l 660 1000 q 676 1018 660 1018 l 825 1018 q 839 1004 839 1018 l 746 -212 q 732 -231 744 -231 l 632 -231 q 601 -206 608 -231 q 514 44 594 -182 q 453 224 474 160 q 436 231 450 231 q 425 224 428 231 q 340 -6 396 150 q 267 -212 322 -57 q 246 -225 261 -225 l 132 -225 q 114 -206 114 -225 l 24 1000 z "},"x":{"ha":914,"x_min":38,"x_max":881,"o":"m 669 996 q 703 1018 682 1018 l 867 1018 q 878 1011 875 1018 q 876 996 881 1004 l 561 397 l 875 -199 q 878 -213 881 -207 q 867 -219 875 -219 l 701 -219 q 669 -199 682 -219 l 458 203 l 249 -199 q 215 -219 236 -219 l 51 -219 q 40 -213 43 -219 q 43 -199 38 -207 l 356 397 l 42 996 q 40 1012 38 1006 q 51 1018 43 1018 l 215 1018 q 249 996 236 1018 l 458 593 l 669 996 l 669 996 z "},"y":{"ha":871,"x_min":18,"x_max":853,"o":"m 850 985 q 796 831 822 907 q 708 582 715 604 q 636 367 657 432 q 582 279 607 319 q 532 179 532 199 l 532 -200 q 508 -221 532 -221 l 356 -221 q 336 -200 336 -221 l 336 179 q 286 278 336 193 q 233 367 260 322 q 151 622 192 494 q 78 844 136 668 q 25 997 42 954 q 39 1019 18 1019 l 188 1019 q 214 1004 208 1019 l 369 542 q 414 408 392 475 q 443 382 424 382 q 469 407 458 382 q 517 539 476 422 l 672 990 q 684 1009 678 1007 q 700 1011 690 1011 l 838 1011 q 853 997 853 1011 q 850 985 853 990 z "},"z":{"ha":929,"x_min":78,"x_max":867,"o":"m 867 -204 q 847 -221 867 -221 l 94 -221 q 78 -208 78 -221 l 78 -31 q 78 -18 78 -24 q 83 -7 79 -12 q 247 251 125 60 q 486 624 338 392 q 621 832 611 818 q 626 844 626 840 q 604 853 626 853 l 107 853 q 83 871 83 853 l 83 994 q 100 1015 83 1015 l 833 1015 q 861 989 861 1015 l 861 853 q 860 843 861 847 q 857 836 858 839 q 819 768 826 781 q 728 631 792 722 q 606 443 724 625 q 414 145 513 300 q 315 -19 315 -10 q 329 -36 315 -36 l 847 -36 q 867 -50 867 -36 l 867 -204 z "}}}
